<?xml version="1.0" encoding="utf-8"?>
<!-- Generator: Adobe Illustrator 18.1.1, SVG Export Plug-In . SVG Version: 6.00 Build 0)  -->
<svg version="1.1" id="Ebene_1" xmlns="http://www.w3.org/2000/svg" xmlns:xlink="http://www.w3.org/1999/xlink" x="0px" y="0px"
	 viewBox="0 0 19 19" enable-background="new 0 0 19 19" xml:space="preserve">
<g>
	<path fill="#E30613" d="M16.6,4l-5.5,5.5l5.5,5.5c1.2-1.5,1.9-3.4,1.9-5.5S17.8,5.5,16.6,4z"/>
	<path fill="#E30613" d="M9.5,7.9L15,2.4c-1.5-1.2-3.4-1.9-5.5-1.9S5.5,1.2,4,2.4L9.5,7.9z"/>
	<path fill="#E30613" d="M7.9,9.5L2.4,4C1.2,5.5,0.5,7.4,0.5,9.5s0.7,4,1.9,5.5L7.9,9.5z"/>
	<path fill="#E30613" d="M9.5,11.1L4,16.6c1.5,1.2,3.4,1.9,5.5,1.9s4-0.7,5.5-1.9L9.5,11.1z"/>
</g>
</svg>
