<?xml version="1.0" encoding="utf-8"?>
<!-- Generator: Adobe Illustrator 18.1.1, SVG Export Plug-In . SVG Version: 6.00 Build 0)  -->
<svg version="1.1" id="Ebene_1" xmlns="http://www.w3.org/2000/svg" xmlns:xlink="http://www.w3.org/1999/xlink" x="0px" y="0px"
	 viewBox="0 0 50 50" enable-background="new 0 0 50 50" xml:space="preserve">
<g>
	<path fill="#706F6F" d="M10.9,25.9c0-2.7-2.3-4.9-5.1-4.9c-2.8,0-5.1,2.2-5.1,4.9c0,2.7,2.3,4.9,5.1,4.9
		C8.6,30.8,10.9,28.6,10.9,25.9z"/>
	<path fill="#706F6F" d="M11.9,35.2c-2.6,0-4.6,2-4.6,4.4s2,4.4,4.6,4.4c2.5,0,4.6-2,4.6-4.4S14.4,35.2,11.9,35.2z"/>
	<path fill="#706F6F" d="M40.5,14.6c1.4,0,2.6-1.1,2.6-2.4s-1.1-2.4-2.6-2.4c-1.4,0-2.6,1.1-2.6,2.4S39.1,14.6,40.5,14.6z"/>
	<path fill="#706F6F" d="M11.9,6.8c-3.1,0-5.6,2.4-5.6,5.4c0,3,2.5,5.4,5.6,5.4c3.1,0,5.6-2.4,5.6-5.4C17.5,9.2,15,6.8,11.9,6.8z"/>
	<path fill="#706F6F" d="M26.2,41.6c-2.3,0-4.1,1.7-4.1,3.9c0,2.2,1.8,3.9,4.1,3.9c2.3,0,4.1-1.7,4.1-3.9
		C30.3,43.3,28.5,41.6,26.2,41.6z"/>
	<path fill="#706F6F" d="M40.5,36.2c-2,0-3.6,1.5-3.6,3.4c0,1.9,1.6,3.4,3.6,3.4c2,0,3.6-1.5,3.6-3.4C44.1,37.7,42.5,36.2,40.5,36.2
		z"/>
	<path fill="#706F6F" d="M46.6,23c-1.7,0-3.1,1.3-3.1,2.9c0,1.6,1.4,2.9,3.1,2.9c1.7,0,3.1-1.3,3.1-2.9C49.7,24.3,48.3,23,46.6,23z"
		/>
	<path fill="#706F6F" d="M26.2,0.4c-3.4,0-6.1,2.6-6.1,5.9c0,3.2,2.7,5.9,6.1,5.9c3.4,0,6.1-2.6,6.1-5.9C32.3,3,29.6,0.4,26.2,0.4z"
		/>
</g>
</svg>
