<?xml version="1.0" encoding="utf-8"?>
<!-- Generator: Adobe Illustrator 18.1.1, SVG Export Plug-In . SVG Version: 6.00 Build 0)  -->
<svg version="1.1" id="Ebene_1" xmlns="http://www.w3.org/2000/svg" xmlns:xlink="http://www.w3.org/1999/xlink" x="0px" y="0px"
	 viewBox="0 0 65 26" enable-background="new 0 0 65 26" xml:space="preserve">
<g>
	<g>
		<g>
			<path fill="#FFFFFF" d="M31.2,8.8v8.8c0,0.1,0,0.2,0.1,0.2l12.3,6.6c0.1,0.1,0.3,0,0.3-0.2V2c0-0.2-0.2-0.3-0.3-0.2L31.3,8.6
				C31.2,8.7,31.2,8.7,31.2,8.8z"/>
			<path fill="#FFFFFF" d="M4.2,17.2V9.1c0-0.3,0.2-0.5,0.5-0.5h25.6c0.3,0,0.5,0.2,0.5,0.5v8.1c0,0.3-0.2,0.5-0.5,0.5H4.7
				C4.4,17.7,4.2,17.4,4.2,17.2z"/>
			<path fill="#FFFFFF" d="M1.5,17.3V9c0-0.2,0.2-0.3,0.3-0.3h1.5c0.2,0,0.3,0.2,0.3,0.3v8.3c0,0.2-0.2,0.3-0.3,0.3H1.9
				C1.7,17.7,1.5,17.5,1.5,17.3z"/>
			<path fill="#FFFFFF" d="M44.3,24.2V1.9c0-0.2,0.1-0.3,0.3-0.3h1.2c0.2,0,0.3,0.1,0.3,0.3v22.2c0,0.2-0.1,0.3-0.3,0.3h-1.2
				C44.4,24.5,44.3,24.3,44.3,24.2z"/>
		</g>
	</g>
	<g>
		<path fill="#FFFFFF" d="M51.6,24.9c-0.2,0-0.4-0.2-0.4-0.4s0.2-0.4,0.4-0.4c6.1,0,11.1-5,11.1-11.1s-5-11.1-11.1-11.1
			c-0.2,0-0.4-0.2-0.4-0.4s0.2-0.4,0.4-0.4c6.6,0,11.9,5.3,11.9,11.9S58.1,24.9,51.6,24.9z"/>
	</g>
	<g>
		<path fill="#FFFFFF" d="M51.6,21.7c-0.2,0-0.4-0.2-0.4-0.4s0.2-0.4,0.4-0.4c4.2,0,7.7-3.5,7.7-7.7s-3.5-7.7-7.7-7.7
			c-0.2,0-0.4-0.2-0.4-0.4c0-0.2,0.2-0.4,0.4-0.4c4.7,0,8.5,3.8,8.5,8.5C60.1,17.9,56.3,21.7,51.6,21.7z"/>
	</g>
</g>
</svg>
