<?xml version="1.0" encoding="utf-8"?>
<!-- Generator: Adobe Illustrator 18.1.1, SVG Export Plug-In . SVG Version: 6.00 Build 0)  -->
<svg version="1.1" id="Ebene_1" xmlns="http://www.w3.org/2000/svg" xmlns:xlink="http://www.w3.org/1999/xlink" x="0px" y="0px"
	 viewBox="0 0 56 24" enable-background="new 0 0 56 24" xml:space="preserve">
<g>
	<path fill="#01B7DE" d="M52.7,7.9V4.4h-2.9V0.2h-3.6v4.2H39l0,0c-3.3,0-5.7,2.2-5.7,5.3c0,0.3,0,0.7,0.1,1.1
		c-1.1-3.9-4.1-6.4-8.1-6.4c-4.9,0-8.7,3.8-9,9v-1.1c0-4.4-3.5-7.9-7.9-7.9c-4.4,0-7.9,3.5-7.9,7.9v11.3h3.6V12.3C4.1,9.9,6,8,8.4,8
		c2.4,0,4.3,1.9,4.3,4.3v11.3h3.6v-8.8c0.3,5.2,4.1,9,9.1,9c3,0,5.7-1.8,7.2-3.8c1.1,2.4,3.3,3.8,6.1,3.8c3.2,0,6.4-2,6.4-5.9
		c0-2.3-1.3-4.2-3.8-5.3c-0.3-0.1-0.6-0.3-0.8-0.4l0,0c-0.3-0.1-0.5-0.3-0.9-0.4c-1.6-0.7-2.4-1.2-2.4-2.3c0-0.9,0.8-1.6,1.8-1.6
		c0.1,0,6.3,0,7.2,0V18c0,3.2,2.6,5.8,5.8,5.8v-3.6c-1.2,0-2.2-1-2.2-2.2V7.9C51.2,7.9,52.4,7.9,52.7,7.9z M25.2,7.9
		c2.8,0,4.2,1.9,4.6,3.9h-9.3C21,9.8,22.7,7.9,25.2,7.9z M39.5,16.1c1,0.4,1.6,1.2,1.6,2.2c0,1.2-0.9,2-2.5,2
		c-1.7,0-2.5-1.5-2.7-1.9l-0.2-0.6h-3.1l0,0h-2.9c-0.8,1.3-2.4,2.5-4.2,2.5c-3.4,0-5-2.6-5.2-5.2h13.7v-0.6c0-1.1-0.1-2.1-0.3-3
		c0.4,1.2,1.3,2.4,3.2,3.3C37.4,15.1,38.5,15.6,39.5,16.1z"/>
	<g>
		<path fill="#01B7DE" d="M54.4,23.8c-0.6,0-1.1-0.5-1.1-1.1c0-0.6,0.5-1.1,1.1-1.1c0.6,0,1.1,0.5,1.1,1.1
			C55.5,23.4,55,23.8,54.4,23.8z M54.4,21.9c-0.5,0-0.8,0.4-0.8,0.8c0,0.5,0.3,0.8,0.8,0.8c0.5,0,0.8-0.4,0.8-0.8
			C55.2,22.2,54.9,21.9,54.4,21.9z M54.6,23.2l-0.1-0.4h-0.1v0.4H54v-1.1h0.4c0.2,0,0.4,0.1,0.4,0.4c0,0.1-0.1,0.2-0.2,0.3l0.2,0.4
			H54.6z M54.4,22.4h-0.2v0.2h0.2c0.1,0,0.1,0,0.1-0.1C54.6,22.4,54.5,22.4,54.4,22.4z"/>
	</g>
</g>
</svg>
