<?xml version="1.0" encoding="utf-8"?>
<!-- Generator: Adobe Illustrator 18.1.1, SVG Export Plug-In . SVG Version: 6.00 Build 0)  -->
<svg version="1.1" id="Ebene_1" xmlns:sketch="http://www.bohemiancoding.com/sketch/ns"
	 xmlns="http://www.w3.org/2000/svg" xmlns:xlink="http://www.w3.org/1999/xlink" x="0px" y="0px" viewBox="0 0 50 50"
	 enable-background="new 0 0 50 50" xml:space="preserve">
<g id="Page-1" sketch:type="MSPage">
	<g id="icons" transform="translate(-600.000000, -540.000000)" sketch:type="MSArtboardGroup">
		<path id="Path" sketch:type="MSShapeGroup" fill="#333333" d="M630.2,569.5c1.3,1.4,1.9,3.6,1.9,6.4v0.5h10.1
			c0-4.8-2.1-6.9-6.8-6.9H630.2z M630.7,576.4c0-5.9-2.7-8.7-8.6-8.7h-5.7c-5.9,0-8.6,2.8-8.6,8.7H630.7z M633,568.1
			c2.9,0,5.2-2.2,5.2-5.2c0-2.8-2.2-5.2-5.2-5.2s-5.2,2.2-5.2,5.2C627.8,565.8,630.1,568.1,633,568.1z M619.2,566.3
			c3.6,0,6.4-2.8,6.4-6.4s-2.8-6.3-6.4-6.3s-6.4,2.8-6.4,6.3C612.9,563.6,615.7,566.3,619.2,566.3z"/>
	</g>
</g>
</svg>
