<?xml version="1.0" encoding="utf-8"?>
<!-- Generator: Adobe Illustrator 18.1.1, SVG Export Plug-In . SVG Version: 6.00 Build 0)  -->
<svg version="1.1" id="Ebene_1" xmlns="http://www.w3.org/2000/svg" xmlns:xlink="http://www.w3.org/1999/xlink" x="0px" y="0px"
	 viewBox="0 0 25 25" enable-background="new 0 0 25 25" xml:space="preserve">
<g>
	<g>
		<path fill="#333333" d="M0,0v25h25V0H0z M4.9,4.2h3.6v0.7H5.6v2.1H8v0.7H5.6v2.8H4.9V4.2z M2.4,4.2h0.8v6.2H2.4V4.2z M3.8,19.9
			H3.1l1.1-5.6H2.4l0.1-0.6h4.4l-0.1,0.6H4.9L3.8,19.9z M11,19.9h-0.7l0.6-3H8l-0.6,3H6.7l1.2-6.2h0.7l-0.5,2.6h2.8l0.5-2.6h0.7
			L11,19.9z M17.1,14.3h-2.7l-0.4,2h2.3l-0.1,0.6h-2.3l-0.5,2.3h2.8l-0.1,0.6h-3.5l1.2-6.2h3.4L17.1,14.3z M21.6,19.9h-0.7l-1.4-4
			l-0.4-1.3h0c0,0.3-0.1,0.7-0.1,1c0,0.3-0.1,0.7-0.2,1l-0.7,3.4h-0.7l1.2-6.2h0.7l1.4,4l0.4,1.3h0c0-0.3,0.1-0.6,0.1-1
			c0-0.3,0.1-0.7,0.2-1l0.7-3.3h0.7L21.6,19.9z"/>
	</g>
</g>
</svg>
