<?xml version="1.0" encoding="utf-8"?>
<!-- Generator: Adobe Illustrator 18.1.1, SVG Export Plug-In . SVG Version: 6.00 Build 0)  -->
<svg version="1.1" id="Ebene_1" xmlns:sketch="http://www.bohemiancoding.com/sketch/ns"
	 xmlns="http://www.w3.org/2000/svg" xmlns:xlink="http://www.w3.org/1999/xlink" x="0px" y="0px" viewBox="0 0 50 50"
	 enable-background="new 0 0 50 50" xml:space="preserve">
<g id="Page-1" sketch:type="MSPage">
	<g id="icons" transform="translate(-240.000000, -660.000000)" sketch:type="MSArtboardGroup">
		<path id="Path" sketch:type="MSShapeGroup" fill="#333333" d="M282.9,687v-4l-3.8-0.5c-0.1-0.8-0.4-1.6-0.6-2.3l3-2.4l-2-3.4
			l-3.6,1.5c-0.5-0.6-1.1-1.2-1.7-1.7l1.5-3.6l-3.4-2l-2.4,3c-0.7-0.3-1.5-0.5-2.3-0.6l-0.5-3.8H263l-0.5,3.8
			c-0.8,0.1-1.6,0.4-2.4,0.6l-2.4-3l-3.4,2l1.4,3.6c-0.6,0.5-1.2,1.1-1.7,1.7l-3.5-1.4l-2,3.4l3,2.3c-0.3,0.8-0.5,1.6-0.6,2.4
			l-3.8,0.5v3.9l3.8,0.5c0.1,0.8,0.4,1.6,0.6,2.4l-3,2.3l2,3.4l3.5-1.4c0.5,0.6,1.1,1.2,1.8,1.8l-1.4,3.5l3.4,2l2.3-3
			c0.8,0.3,1.6,0.5,2.4,0.6l0.5,3.8h3.9l0.5-3.8c0.8-0.1,1.6-0.4,2.4-0.6l2.3,3l3.4-2l-1.4-3.5c0.6-0.5,1.2-1.1,1.7-1.7l3.6,1.4
			l2-3.4l-3-2.4c0.3-0.8,0.5-1.5,0.6-2.4L282.9,687z M275.3,685c0,5.7-4.6,10.4-10.4,10.4s-10.4-4.6-10.4-10.4
			c0-5.7,4.6-10.4,10.4-10.4S275.3,679.3,275.3,685z M265,680.7c-2.4,0-4.3,1.9-4.3,4.3c0,2.4,1.9,4.3,4.3,4.3s4.3-1.9,4.3-4.3
			C269.3,682.7,267.3,680.7,265,680.7z"/>
	</g>
</g>
</svg>
