<?xml version="1.0" encoding="utf-8"?>
<!-- Generator: Adobe Illustrator 16.2.1, SVG Export Plug-In . SVG Version: 6.00 Build 0)  -->
<!DOCTYPE svg PUBLIC "-//W3C//DTD SVG 1.1//EN" "http://www.w3.org/Graphics/SVG/1.1/DTD/svg11.dtd">
<svg version="1.1" id="Layer_1" xmlns="http://www.w3.org/2000/svg" xmlns:xlink="http://www.w3.org/1999/xlink" x="0px" y="0px"
	 width="350px" height="350.001px" viewBox="0 0 350 350.001" enable-background="new 0 0 350 350.001" xml:space="preserve">
<g id="grey">
	<path fill="#EDEDED" d="M0,0"/>
</g>
<g id="pattern">
	<g id="Layer_1_1_">
		<g opacity="0.3">
			<g>
				<polygon fill="#CECECE" points="50,0 0,50 0,0 				"/>
			</g>
			<g>
				<polygon fill="#E5E5E5" points="0,50 50,0.001 50,50 				"/>
			</g>
		</g>
		<g opacity="0.3">
			<g>
				<polygon fill="#DDDDDD" points="50,0 100,50 50,50 				"/>
			</g>
			<g>
				<polygon fill="#F2F2F2" points="100,50 50.001,0 100,0 				"/>
			</g>
		</g>
		<g opacity="0.3">
			<g>
				<polygon fill="#D6D6D6" points="50,100 100,50 100,100 				"/>
			</g>
			<g>
				<polygon fill="#E5E5E5" points="100,50 50,99.999 50,50 				"/>
			</g>
		</g>
		<g opacity="0.3">
			<g>
				<polygon fill="#CECECE" points="50,100 0,50 50,50 				"/>
			</g>
			<g>
				<polygon fill="#E8E8E8" points="0,50 49.999,100 0,100 				"/>
			</g>
		</g>
		<g opacity="0.3">
			<g>
				<polygon fill="#CECECE" points="200,100 250,150 200,150 				"/>
			</g>
			<g>
				<polygon fill="#E5E5E5" points="250,150 200.001,100 250,100 				"/>
			</g>
		</g>
		<g opacity="0.3">
			<g>
				<polygon fill="#DDDDDD" points="150,150 200,100 200,150 				"/>
			</g>
			<g>
				<polygon fill="#F2F2F2" points="200,100 150,149.999 150,100 				"/>
			</g>
		</g>
		<g opacity="0.3">
			<g>
				<polygon fill="#D6D6D6" points="150,100 100,50 150,50 				"/>
			</g>
			<g>
				<polygon fill="#E5E5E5" points="100,50 149.999,100 100,100 				"/>
			</g>
		</g>
		<g opacity="0.3">
			<g>
				<polygon fill="#CECECE" points="100,0 150,50 100,50 				"/>
			</g>
			<g>
				<polygon fill="#E8E8E8" points="150,50 100.001,0 150,0 				"/>
			</g>
		</g>
		<g opacity="0.3">
			<g>
				<polygon fill="#CECECE" points="250,50 300,100 250,100 				"/>
			</g>
			<g>
				<polygon fill="#E5E5E5" points="300,100 250.001,50 300,50 				"/>
			</g>
		</g>
		<g opacity="0.3">
			<g>
				<polygon fill="#DDDDDD" points="250,0 300,50 250,50 				"/>
			</g>
			<g>
				<polygon fill="#F2F2F2" points="300,50 250.001,0 300,0 				"/>
			</g>
		</g>
		<g opacity="0.3">
			<g>
				<polygon fill="#D6D6D6" points="150,100 200,50 200,100 				"/>
			</g>
			<g>
				<polygon fill="#E5E5E5" points="200,50 150,99.999 150,50 				"/>
			</g>
		</g>
		<g opacity="0.3">
			<g>
				<polygon fill="#CECECE" points="250,50 200,100 200,50 				"/>
			</g>
			<g>
				<polygon fill="#E8E8E8" points="200,100 250,50.001 250,100 				"/>
			</g>
		</g>
		<g opacity="0.3">
			<g>
				<line fill="#CECECE" x1="350" y1="100" x2="350" y2="50"/>
			</g>
			<g>
				<path fill="#E5E5E5" d="M350,100"/>
			</g>
		</g>
		<g opacity="0.3">
			<g>
				<polygon fill="#DDDDDD" points="300,50 350,0 350,50 				"/>
			</g>
			<g>
				<polygon fill="#F2F2F2" points="350,0 300,49.999 300,0 				"/>
			</g>
		</g>
		<g opacity="0.3">
			<g>
				<polygon fill="#D6D6D6" points="300,50 350,100 300,100 				"/>
			</g>
			<g>
				<polygon fill="#E5E5E5" points="350,100 300.001,50 350,50 				"/>
			</g>
		</g>
		<g opacity="0.3">
			<g>
				<path fill="#CECECE" d="M350,0"/>
			</g>
			<g>
				<line fill="#E8E8E8" x1="350" y1="50" x2="350" y2="0"/>
			</g>
		</g>
		<g opacity="0.3">
			<g>
				<polygon fill="#CECECE" points="150,200 200,150 200,200 				"/>
			</g>
			<g>
				<polygon fill="#E5E5E5" points="200,150 150,199.999 150,150 				"/>
			</g>
		</g>
		<g opacity="0.3">
			<g>
				<polygon fill="#DDDDDD" points="100,300 150,250 150,300 				"/>
			</g>
			<g>
				<polygon fill="#F2F2F2" points="150,250 100,299.999 100,250 				"/>
			</g>
		</g>
		<g opacity="0.3">
			<g>
				<polygon fill="#D6D6D6" points="150,100 100,150 100,100 				"/>
			</g>
			<g>
				<polygon fill="#E5E5E5" points="100,150 150,100.001 150,150 				"/>
			</g>
		</g>
		<g opacity="0.3">
			<g>
				<polygon fill="#CECECE" points="250,50 200,0 250,0 				"/>
			</g>
			<g>
				<polygon fill="#E8E8E8" points="200,0 249.999,50 200,50 				"/>
			</g>
		</g>
		<g opacity="0.3">
			<g>
				<polygon fill="#CECECE" points="150,150 100,200 100,150 				"/>
			</g>
			<g>
				<polygon fill="#E5E5E5" points="100,200 150,150.001 150,200 				"/>
			</g>
		</g>
		<g opacity="0.3">
			<g>
				<polygon fill="#DDDDDD" points="150,50 200,0 200,50 				"/>
			</g>
			<g>
				<polygon fill="#F2F2F2" points="200,0 150,49.999 150,0 				"/>
			</g>
		</g>
		<g opacity="0.3">
			<g>
				<polygon fill="#D6D6D6" points="50,100 100,150 50,150 				"/>
			</g>
			<g>
				<polygon fill="#E5E5E5" points="100,150 50.001,100 100,100 				"/>
			</g>
		</g>
		<g opacity="0.3">
			<g>
				<polygon fill="#CECECE" points="100,250 150,200 150,250 				"/>
			</g>
			<g>
				<polygon fill="#E8E8E8" points="150,200 100,249.999 100,200 				"/>
			</g>
		</g>
		<g opacity="0.3">
			<g>
				<path fill="#CECECE" d="M350,100"/>
			</g>
			<g>
				<line fill="#E5E5E5" x1="350" y1="150" x2="350" y2="100"/>
			</g>
		</g>
		<g opacity="0.3">
			<g>
				<path fill="#DDDDDD" d="M350,250"/>
			</g>
			<g>
				<line fill="#F2F2F2" x1="350" y1="249.999" x2="350" y2="200"/>
			</g>
		</g>
		<g opacity="0.3">
			<g>
				<polygon fill="#D6D6D6" points="250,150 200,200 200,150 				"/>
			</g>
			<g>
				<polygon fill="#E5E5E5" points="200,200 250,150.001 250,200 				"/>
			</g>
		</g>
		<g opacity="0.3">
			<g>
				<polygon fill="#CECECE" points="50,100 0,150 0,100 				"/>
			</g>
			<g>
				<polygon fill="#E8E8E8" points="0,150 50,100.001 50,150 				"/>
			</g>
		</g>
		<g opacity="0.3">
			<g>
				<polygon fill="#CECECE" points="250,150 300,100 300,150 				"/>
			</g>
			<g>
				<polygon fill="#E5E5E5" points="300,100 250,149.999 250,100 				"/>
			</g>
		</g>
		<g opacity="0.3">
			<g>
				<line fill="#DDDDDD" x1="350" y1="200" x2="350" y2="150"/>
			</g>
			<g>
				<path fill="#F2F2F2" d="M350,200"/>
			</g>
		</g>
		<g opacity="0.3">
			<g>
				<polygon fill="#D6D6D6" points="350,150 300,100 350,100 				"/>
			</g>
			<g>
				<polygon fill="#E5E5E5" points="300,100 349.999,150 300,150 				"/>
			</g>
		</g>
		<g opacity="0.3">
			<g>
				<polygon fill="#CECECE" points="250,150 300,200 250,200 				"/>
			</g>
			<g>
				<polygon fill="#E8E8E8" points="300,200 250.001,150 300,150 				"/>
			</g>
		</g>
		<g opacity="0.3">
			<g>
				<polygon fill="#CECECE" points="0,250 50,300 0,300 				"/>
			</g>
			<g>
				<polygon fill="#E5E5E5" points="50,300 0.001,250 50,250 				"/>
			</g>
		</g>
		<g opacity="0.3">
			<g>
				<polygon fill="#DDDDDD" points="0,250 50,200 50,250 				"/>
			</g>
			<g>
				<polygon fill="#F2F2F2" points="50,200 0,249.999 0,200 				"/>
			</g>
		</g>
		<g opacity="0.3">
			<g>
				<polygon fill="#D6D6D6" points="100,250 50,200 100,200 				"/>
			</g>
			<g>
				<polygon fill="#E5E5E5" points="50,200 99.999,250 50,250 				"/>
			</g>
		</g>
		<g opacity="0.3">
			<g>
				<polygon fill="#CECECE" points="100,250 50,300 50,250 				"/>
			</g>
			<g>
				<polygon fill="#E8E8E8" points="50,300 100,250.001 100,300 				"/>
			</g>
		</g>
		<g opacity="0.3">
			<g>
				<polygon fill="#CECECE" points="200,250 150,200 200,200 				"/>
			</g>
			<g>
				<polygon fill="#E5E5E5" points="150,200 199.999,250 150,250 				"/>
			</g>
		</g>
		<g opacity="0.3">
			<g>
				<line fill="#DDDDDD" x1="300" y1="350" x2="350" y2="350"/>
			</g>
			<g>
				<path fill="#F2F2F2" d="M300,350"/>
			</g>
		</g>
		<g opacity="0.3">
			<g>
				<polygon fill="#D6D6D6" points="100,150 50,200 50,150 				"/>
			</g>
			<g>
				<polygon fill="#E5E5E5" points="50,200 100,150.001 100,200 				"/>
			</g>
		</g>
		<g opacity="0.3">
			<g>
				<polygon fill="#CECECE" points="0,200 50,150 50,200 				"/>
			</g>
			<g>
				<polygon fill="#E8E8E8" points="50,150 0,199.999 0,150 				"/>
			</g>
		</g>
		<g opacity="0.3">
			<g>
				<polygon fill="#CECECE" points="200,350 250,300 250,350 				"/>
			</g>
			<g>
				<polygon fill="#E5E5E5" points="250,300 200,349.999 200,300 				"/>
			</g>
		</g>
		<g opacity="0.3">
			<g>
				<polygon fill="#DDDDDD" points="250,200 300,250 250,250 				"/>
			</g>
			<g>
				<polygon fill="#F2F2F2" points="300,250 250.001,200 300,200 				"/>
			</g>
		</g>
		<g opacity="0.3">
			<g>
				<line fill="#D6D6D6" x1="250" y1="350" x2="300" y2="350"/>
			</g>
			<g>
				<path fill="#E5E5E5" d="M250,350"/>
			</g>
		</g>
		<g opacity="0.3">
			<g>
				<polygon fill="#CECECE" points="150,300 200,250 200,300 				"/>
			</g>
			<g>
				<polygon fill="#E8E8E8" points="200,250 150,299.999 150,250 				"/>
			</g>
		</g>
		<g opacity="0.3">
			<g>
				<line fill="#CECECE" x1="350" y1="300" x2="350" y2="250"/>
			</g>
			<g>
				<path fill="#E5E5E5" d="M350,300"/>
			</g>
		</g>
		<g opacity="0.3">
			<g>
				<polygon fill="#DDDDDD" points="300,150 350,200 300,200 				"/>
			</g>
			<g>
				<polygon fill="#F2F2F2" points="350,200 300.001,150 350,150 				"/>
			</g>
		</g>
		<g opacity="0.3">
			<g>
				<polygon fill="#D6D6D6" points="200,300 250,250 250,300 				"/>
			</g>
			<g>
				<polygon fill="#E5E5E5" points="250,250 200,299.999 200,250 				"/>
			</g>
		</g>
		<g opacity="0.3">
			<g>
				<polygon fill="#CECECE" points="300,250 350,200 350,250 				"/>
			</g>
			<g>
				<polygon fill="#E8E8E8" points="350,200 300,249.999 300,200 				"/>
			</g>
		</g>
		<g opacity="0.3">
			<g>
				<polygon fill="#CECECE" points="50,300 0,350 0,300 				"/>
			</g>
			<g>
				<polygon fill="#E5E5E5" points="0,350 50,300.001 50,350 				"/>
			</g>
		</g>
		<g opacity="0.3">
			<g>
				<polygon fill="#DDDDDD" points="50,300 100,350 50,350 				"/>
			</g>
			<g>
				<polygon fill="#F2F2F2" points="100,350 50.001,300 100,300 				"/>
			</g>
		</g>
		<g opacity="0.3">
			<g>
				<path fill="#D6D6D6" d="M100,350"/>
			</g>
			<g>
				<line fill="#E5E5E5" x1="50" y1="350" x2="100" y2="350"/>
			</g>
		</g>
		<g opacity="0.3">
			<g>
				<line fill="#CECECE" x1="0" y1="350" x2="50" y2="350"/>
			</g>
			<g>
				<path fill="#E8E8E8" d="M0,350"/>
			</g>
		</g>
		<g opacity="0.3">
			<g>
				<polygon fill="#CECECE" points="150,300 100,350 100,300 				"/>
			</g>
			<g>
				<polygon fill="#E5E5E5" points="100,350 150,300.001 150,350 				"/>
			</g>
		</g>
		<g opacity="0.3">
			<g>
				<line fill="#DDDDDD" x1="200" y1="350" x2="250" y2="350"/>
			</g>
			<g>
				<path fill="#F2F2F2" d="M200,350"/>
			</g>
		</g>
		<g opacity="0.3">
			<g>
				<line fill="#D6D6D6" x1="150" y1="350" x2="200" y2="350"/>
			</g>
			<g>
				<path fill="#E5E5E5" d="M200,350.001"/>
			</g>
		</g>
		<g opacity="0.3">
			<g>
				<path fill="#CECECE" d="M150,350"/>
			</g>
			<g>
				<line fill="#E8E8E8" x1="100" y1="350" x2="150" y2="350"/>
			</g>
		</g>
		<g opacity="0.3">
			<g>
				<polygon fill="#CECECE" points="300,350 350,300 350,350 				"/>
			</g>
			<g>
				<polygon fill="#E5E5E5" points="350,300 300,349.999 300,300 				"/>
			</g>
		</g>
		<g opacity="0.3">
			<g>
				<polygon fill="#DDDDDD" points="250,350 300,300 300,350 				"/>
			</g>
			<g>
				<polygon fill="#F2F2F2" points="300,300 250,349.999 250,300 				"/>
			</g>
		</g>
		<g opacity="0.3">
			<g>
				<polygon fill="#D6D6D6" points="200,250 250,200 250,250 				"/>
			</g>
			<g>
				<polygon fill="#E5E5E5" points="250,200 200,249.999 200,200 				"/>
			</g>
		</g>
		<g opacity="0.3">
			<g>
				<polygon fill="#CECECE" points="200,350 150,300 200,300 				"/>
			</g>
			<g>
				<polygon fill="#E8E8E8" points="150,300 199.999,350 150,350 				"/>
			</g>
		</g>
		<g opacity="0.3">
			<g>
				<path fill="#CECECE" d="M350,350"/>
			</g>
		</g>
		<g opacity="0.3">
			<g>
				<polygon fill="#DDDDDD" points="300,300 250,250 300,250 				"/>
			</g>
			<g>
				<polygon fill="#F2F2F2" points="250,250 299.999,300 250,300 				"/>
			</g>
		</g>
		<g opacity="0.3">
			<g>
				<polygon fill="#D6D6D6" points="300,300 350,250 350,300 				"/>
			</g>
			<g>
				<polygon fill="#E5E5E5" points="350,250 300,299.999 300,250 				"/>
			</g>
		</g>
		<g opacity="0.3">
			<g>
				<path fill="#CECECE" d="M350,300"/>
			</g>
			<g>
				<line fill="#E8E8E8" x1="350" y1="350" x2="350" y2="300"/>
			</g>
		</g>
	</g>
	<g id="bg">
	</g>
	<g id="Layer_3">
	</g>
	<g id="search">
	</g>
	<g id="New_Symbol">
	</g>
</g>
</svg>
